<?xml version="1.0" encoding="UTF-8"?>
<svg id="Layer_1" xmlns="http://www.w3.org/2000/svg" viewBox="0 0 357.74 266.32">
  <defs>
    <style>
      .cls-1 {
        fill: #010101;
      }

      .cls-2 {
        stroke-width: 7.6px;
      }

      .cls-2, .cls-3 {
        fill: none;
        stroke: #010101;
        stroke-miterlimit: 10;
      }

      .cls-3 {
        stroke-width: 28.5px;
      }
    </style>
  </defs>
  <path class="cls-1" d="M218.73,41.17l45.37,56.37v130.78H38V97.54l45.83-56.37h134.9M236.93,3.17H65.75l-11.41,14.03L8.51,73.57,0,84.04v182.28h302.11V84.15l-8.4-10.43-45.37-56.37-11.41-14.17h0Z"/>
  <line class="cls-2" x1="151.05" y1="41.17" x2="151.05" y2="228.32"/>
  <line class="cls-3" x1="286.91" y1="108.94" x2="189.28" y2="108.94"/>
  <line class="cls-3" x1="286.91" y1="175.12" x2="189.28" y2="175.12"/>
  <path class="cls-1" d="M280.89,11.4l11.9,14.78v17.46l-25.95-32.24h14.05M286.35,0h-43.31l14.93,18.55,25.95,32.24,20.28,25.2V22.16l-2.52-3.13-11.9-14.78-3.42-4.25h0Z"/>
  <path class="cls-1" d="M334.25,211.64l10.19,8.86v24.7h-19.05v-15.39h-34.68v-18.17h43.54M339.22,198.34h-61.82v44.77h34.68v15.39h45.65v-44.07l-4.57-3.98-10.19-8.86-3.75-3.26h0Z"/>
  <rect class="cls-1" x="189.28" y="94.74" width="101.42" height="28.56"/>
  <rect class="cls-1" x="189.28" y="160.84" width="101.42" height="28.56"/>
  <polygon class="cls-1" points="82.29 95.03 82.29 229.38 59.49 229.38 59.49 123.07 82.29 95.03"/>
  <polygon class="cls-1" points="126.37 76.01 126.37 229.38 103.57 229.38 103.57 92.21 116.76 76.01 126.37 76.01"/>
</svg>